#!OML:ASF F:\VICON\USERDATA\INSTALL\rory3\rory3.ASF
:FULLY-SPECIFIED
:DEGREES
82
root 1.199074222912202 17.61053338919406 37.09548600734061 -0.9744611141292909 -0.9115451624698769 3.05692295031056
lfemur -0.1232508483731154 -3.598313887103382 -20.490712187301803
ltibia 28.593272496828455
lfoot -2.565143864663704 0.00998820231599895
ltoes -7.920549817305104
rfemur -25.33346552829928 1.607781542160731 24.270190903831836
rtibia 42.5220734143395
rfoot -7.215060398778018 -12.7353663816174
rtoes 0.13456297769414727
lowerback 11.74730890727822 -0.5507065303603838 -1.2511417089021302
upperback -0.15533999879507962 -0.7135270808354095 1.8191298117472352
thorax -6.328806652571303 -0.22519563263022724 4.0699257785775504
lowerneck -16.414800408281376 -3.369956199095179 -2.2772755873682904
upperneck 21.15959806063277 -4.531473499255826 2.0555599889951557
head 9.426858793243477 -2.067758850100665 0.5242861865238213
lclavicle -2.026553896841707e-15 -7.118051621464384e-16
lhumerus -29.366969669372292 1.7577671642730297 80.55400697896371
lradius 23.892609488084506
lwrist 9.948893077456027
lhand -29.818972684451534 18.55111836914672
lfingers 7.12502
lthumb -3.1906754992630693 47.90433919975923
rclavicle -2.02588719820422e-15 -7.113693842720589e-16
rhumerus -31.203275212037774 -20.37989017127856 -78.7224553597254
rradius 22.249092212097604
rwrist 4.026049347324858
rhand -17.382569757557246 21.60522377563862
rfingers 7.12502
rthumb 9.13384484533634 -7.616936455235173
83
root 1.1857339007576382 17.634467846585757 37.71031077088904 -1.0222080979147337 -1.0874121527943135 2.104890298735003
lfemur 0.4008643156248546 -3.8619939504818293 -20.08379591543601
ltibia 28.320114012176717
lfoot -1.0334520545070962 -0.5683284720159847
ltoes -9.437760336505175
rfemur -25.049389876222687 1.4820680216113888 25.139699178574396
rtibia 37.47964475359849
rfoot -5.457988380780733 -13.03470518858079
rtoes -0.5056998451887966
lowerback 11.646520385318441 -0.8266788711488449 -0.7023063140812249
upperback -0.2508085236755656 -0.8810540026875995 2.020971591326067
thorax -6.313411580888489 -0.3501141833924794 3.8991688948374508
lowerneck -16.383672613470356 -3.3585099745085083 -2.3022255138497525
upperneck 21.31420530636056 -4.4930164727781285 2.0201248788931965
head 9.506742449832798 -2.056946055686204 0.5086118111103792
lclavicle -2.0298914652984964e-15 -7.139381421480021e-16
lhumerus -29.60355413925574 1.9766641175171653 80.29796169741094
lradius 24.682681466289424
lwrist 9.521021667339921
lhand -29.710199470922948 18.711417343168485
lfingers 7.12502
lthumb -3.121237942781641 48.06946039072019
rclavicle -2.0281318988158454e-15 -7.128026415817886e-16
rhumerus -31.913357725904238 -20.228643996025877 -78.3649763992736
rradius 22.238786484382324
rwrist 4.339320746381015
rhand -17.291068148355382 21.48331694688173
rfingers 7.12502
rthumb 9.225666398765698 -7.698715966963646
84
root 1.2047500186485127 17.693535032166025 38.163444447266585 -0.6585060212559786 -0.4635131313118804 1.7744788349060112
lfemur 0.29563399214284836 -4.3745228935954135 -19.92286233054934
ltibia 27.967261887697752
lfoot 2.1959163572908853 -1.2829465522209729
ltoes -9.917120404201206
rfemur -24.48543371578876 0.6226620514756616 25.380474291798542
rtibia 33.03036706819492
rfoot -3.909268320049015 -13.301014796071751
rtoes 1.086893801293742
lowerback 11.267142709814465 -1.3911162010371538 -0.27466237545598515
upperback -0.45845611131228925 -1.461068831195505 2.126171887312519
thorax -6.251263715437806 -0.6570206042995206 3.6132105742397584
lowerneck -16.25850402863021 -3.334950086051955 -2.3324305764731292
upperneck 21.44784349336289 -4.422437006013893 1.8829647688988709
head 9.532226949374591 -2.034672858295277 0.47352988055482814
lclavicle -2.0283301770589423e-15 -7.129375241365849e-16
lhumerus -30.190667200779295 2.113465492242068 80.07809672009637
lradius 25.690778922767848
lwrist 8.540691486562217
lhand -29.231549307477685 19.19157819228944
lfingers 7.12502
lthumb -2.4636802434723792 49.198094053102594
rclavicle -2.0258048195713766e-15 -7.113167350696812e-16
rhumerus -32.98445635947113 -20.626106824751364 -77.70010264379171
rradius 22.33114499417077
rwrist 4.530596738643392
rhand -17.129604266490393 21.363257635614463
rfingers 7.12502
rthumb 9.22690266382811 -8.198812061067294
85
root 1.2273264555932633 17.762235646684132 38.48854005592164 -0.4628176874367851 0.04493431280633431 1.6188258579325332
lfemur 0.03307941270995052 -4.6074161268519145 -20.137171943627045
ltibia 27.1403613501566
lfoot 5.713107951060923 -1.9673969844739558
ltoes -9.697697703618717
rfemur -23.78936788525204 0.16441835622254897 25.398286133987305
rtibia 29.182130450274684
rfoot -2.749508996648389 -13.0154163176061
rtoes 1.8499548840555682
lowerback 11.021892335819304 -1.7351488551083285 -0.09275024269091126
upperback -0.6128468788013591 -1.8879228839174942 2.1903746704512637
thorax -6.168585644700519 -0.8808254612654534 3.5774392618854067
lowerneck -16.25424976876452 -3.345578240277891 -2.4111495274974035
upperneck 21.620409546184323 -4.4205189717686055 1.8952424102897123
head 9.605867029872336 -2.0313134052573774 0.4771109737946245
lclavicle -2.0282525530591104e-15 -7.128874554038757e-16
lhumerus -30.828424284116753 1.906454097500134 79.96433997089643
lradius 26.811583114929324
lwrist 8.103262287448448
lhand -28.76802947028056 19.477274740336316
lfingers 7.12502
lthumb -1.871859218394588 49.496568144298145
rclavicle -2.0289095266960984e-15 -7.132991498278064e-16
rhumerus -33.75675920040723 -20.926462724136332 -76.89614793238226
rradius 22.42793410944445
rwrist 4.503689857933505
rhand -17.030571637381165 21.30553942351208
rfingers 7.12502
rthumb 9.295416697600611 -8.308369808855502
86
root 1.218190355285039 17.825212616566663 38.54685593576566 -0.8328581624749831 0.7439701390638188 1.2228993948928872
lfemur -0.24389212440358055 -4.826184385597157 -20.19458038113345
ltibia 26.68127700527852
lfoot 8.091280008414829 -2.890822350902358
ltoes -8.422470175522063
rfemur -22.638822817606 -0.19065281927696054 25.614744413413945
rtibia 25.86496257800055
rfoot -2.1598290492536503 -12.552499099329342
rtoes 1.6767518138253026
lowerback 11.026495277040254 -2.069430735596766 0.22271486884842084
upperback -0.55761761671524 -2.325083910920377 2.295203157079957
thorax -6.076237847595115 -1.121452260330437 3.5201848842035
lowerneck -16.30041694094473 -3.3720444026525924 -2.5387228914079922
upperneck 21.79946800027064 -4.460290497339978 1.9799436433981548
head 9.71226900812657 -2.0506470813196085 0.5060722334460334
lclavicle -2.0268157462415575e-15 -7.11968734442764e-16
lhumerus -31.296916768933396 1.6371566628205345 79.86074759949794
lradius 27.773559958657764
lwrist 7.772562957980536
lhand -28.436682254864834 19.45031049735892
lfingers 7.12502
lthumb -1.3096861229664347 49.982366919037986
rclavicle -2.0292763871121786e-15 -7.135333575600019e-16
rhumerus -34.374528822570305 -21.190334472143906 -76.2073461834049
rradius 22.494283099347708
rwrist 4.787140769814904
rhand -16.879555283804372 21.454020781326175
rfingers 7.12502
rthumb 9.34226681431984 -8.118807982943927
